# xmcd
#
# Track frame offsets: 
#        150
#        15244
#        29732
#        44961
#        58482
#        70538
#        85721
#        100285
#        112409
#        126603
#        142603
#        154417
#        170420
#        187049
#        199998
#        215877
#
# Disc length: 3086 seconds
#
# Revision: 1
# Processed by: cddbd v1.5.2PL0 Copyright (c) Steve Scherf et al.
# Submitted via: ExactAudioCopyFreeDBPlugin 1.0
#
DISCID=fd0c0c10
DTITLE=Dagmar Lay D. - Best of das Doppelalbum ( CD 2)
DYEAR=2006
DGENRE=Country
TTITLE0=When You Leave
TTITLE1=Jolene
TTITLE2=How Many Heartaches
TTITLE3=The Devil In The Bottle
TTITLE4=Now Or Never
TTITLE5=Highway Heaven
TTITLE6=Down In Mexico
TTITLE7=Stand By Your Man
TTITLE8=Maybe I Will Maybe I Won't
TTITLE9=Wild Water
TTITLE10=You're In My Dreams
TTITLE11=Here We Come - Here We Go
TTITLE12=You're So Vain
TTITLE13=A Man Should Never Gamble
TTITLE14=He Wakes Me With A Kiss
TTITLE15=Go To The Limit [Special Mix]
EXTD=
EXTT0=
EXTT1=
EXTT2=
EXTT3=
EXTT4=
EXTT5=
EXTT6=
EXTT7=
EXTT8=
EXTT9=
EXTT10=
EXTT11=
EXTT12=
EXTT13=
EXTT14=
EXTT15=
PLAYORDER=
